<svg viewBox="0 0 289.049 45.683" height="45.683" width="289.049" xmlns:xlink="http://www.w3.org/1999/xlink" xmlns="http://www.w3.org/2000/svg">
  <defs>
    <clipPath id="clip-path">
      <rect fill="#50e6af" height="45.683" width="55.507" data-name="Rectangle 6" id="Rectangle_6"></rect>
    </clipPath>
    <clipPath id="clip-path-2">
      <rect fill="#fff" height="39.309" width="222.674" data-name="Rectangle 7" id="Rectangle_7"></rect>
    </clipPath>
  </defs>
  <g transform="translate(-3030.742 -537.023)" data-name="Group 2510" id="Group_2510">
    <g transform="translate(3030.742 537.023)" data-name="Group 2509" id="Group_2509">
      <g clip-path="url(#clip-path)" transform="translate(0)" data-name="Group 2492" id="Group_2492">
        <path fill="#50e6af" transform="translate(0 0)" d="M53.836,8.223A14.362,14.362,0,0,0,43.444.2,13.6,13.6,0,0,0,31.56,3.938L27.748,7.609l-1.3-1.252L23.936,3.938A13.619,13.619,0,0,0,14.692.006H14.68c-.108,0-.215,0-.322,0a13.669,13.669,0,0,0-2.307.2A14.347,14.347,0,0,0,4.24,4.444l-.027.029c-.016.014-.03.03-.044.046l-.01.012c-.173.193-.343.392-.5.6-.126.15-.249.3-.369.459A14.339,14.339,0,0,0,1.67,8.233,16.485,16.485,0,0,0,.177,17.876,2.783,2.783,0,0,0,4.9,19.432a2.749,2.749,0,0,0,.789-2.346,10.808,10.808,0,0,1,.969-6.4A8.891,8.891,0,0,1,8.385,8.18L8.4,8.164h0A7.915,7.915,0,0,1,18.164,6.43c.116.063.231.128.344.2a7.807,7.807,0,0,1,1.1.782.06.06,0,0,1,.009.009c.051.04.1.085.151.13s.1.086.145.13.124.117.184.177l.577.556L22.112,9.9,25.82,13.47a2.779,2.779,0,0,0,3.856,0l5.74-5.529a8.245,8.245,0,0,1,5.721-2.384,7.815,7.815,0,0,1,1.35.117A8.873,8.873,0,0,1,48.85,10.68a10.857,10.857,0,0,1-1.692,12.088L32.886,37.8a7.087,7.087,0,0,1-10.277,0L20.061,35.16l-1.324-1.369-.141-.146-1.528-1.582-1.776-1.837-2.28-2.354-.01-.01a3.576,3.576,0,0,1-.489-.5l-.022-.023a1.572,1.572,0,0,1-.268-.373,1.477,1.477,0,0,1-.073-.16,3.591,3.591,0,0,1,5.013-4.763c.068.04.133.082.2.126a1.892,1.892,0,0,1,.418.317l3.687,3.7,2.469,2.475q.061.061.121.117a5.282,5.282,0,0,0,7.4-.155l11.78-11.9a2.808,2.808,0,0,0-.063-3.9l-.04-.04a2.808,2.808,0,0,0-4.036.066l-2.18,2.329c-.625.668-7.526,7.873-8.384,8.266A1.891,1.891,0,0,1,26.428,23a6.628,6.628,0,0,1-.517-.479c-.038-.039-.077-.078-.113-.117-1.072-1.1-2.126-2.342-3.277-3.436-.216-.206-.435-.406-.659-.6a12.4,12.4,0,0,0-1.483-1.109A9.487,9.487,0,0,0,14.3,15.923a8.867,8.867,0,0,0-2.656.747c-.065.029-.129.06-.193.091-.013.007-.027.013-.04.021-.051.025-.1.05-.15.076s-.1.05-.142.076-.109.06-.163.091c-.209.118-.413.246-.612.381l-.161.11-.137.1a.254.254,0,0,0-.033.023l-.07.052-.06.047c-.063.046-.124.094-.184.143s-.115.094-.171.141-.113.1-.168.146-.094.083-.141.128l-.04.036-.122.117c-.072.07-.143.142-.212.214-.039.039-.076.078-.113.117l-.122.135c-.051.056-.1.112-.147.168s-.106.125-.156.188-.1.128-.152.193a6.692,6.692,0,0,0-.481.723l-.008.013c-.18.315-.339.641-.5.984a9.1,9.1,0,0,0-.891,3.9,9.225,9.225,0,0,0,1.711,5.368l0,.005.05.052q.186.268.4.524l.756.792.167.168,3.856,3.873,6.293,6.319A11.84,11.84,0,0,0,36.5,42.009L51.188,26.594A16.509,16.509,0,0,0,53.836,8.223" data-name="Path 3038" id="Path_3038"></path>
      </g>
    </g>
    <g transform="translate(3097.117 543.21)" data-name="Group 2508" id="Group_2508">
      <g clip-path="url(#clip-path-2)" data-name="Group 2499" id="Group_2499">
        <path fill="#fff" transform="translate(0 -2.783)" d="M12.541,3.212q2.1,0,3.586.107t2.727.322q.838.145,1.715.347a1,1,0,0,1,.769,1.087L21.018,8.1a1.008,1.008,0,0,1-1.056.9q-.872-.046-1.643-.074-1.182-.042-2.534-.086T12.541,8.8a5.767,5.767,0,0,0-3.414.881,4.966,4.966,0,0,0-1.74,2.985,26.038,26.038,0,0,0-.515,5.884,26.082,26.082,0,0,0,.515,5.863,4.879,4.879,0,0,0,1.74,2.985,5.871,5.871,0,0,0,3.414.859q2.963,0,4.982-.086,1.52-.064,3.016-.2a1.006,1.006,0,0,1,1.093.886l.346,2.981a1.006,1.006,0,0,1-.728,1.087,24.912,24.912,0,0,1-3.383.681,42.426,42.426,0,0,1-5.326.279A15.512,15.512,0,0,1,5.2,32.4a8.558,8.558,0,0,1-3.973-4.832A26.987,26.987,0,0,1,0,18.545a26.988,26.988,0,0,1,1.224-9.02A8.559,8.559,0,0,1,5.2,4.694a15.512,15.512,0,0,1,7.345-1.482" data-name="Path 3039" id="Path_3039"></path>
        <path fill="#fff" transform="translate(-167.815 0)" d="M198.352,0a1.671,1.671,0,0,1,1.89,1.89V4.209a1.67,1.67,0,0,1-1.89,1.89H195.6a1.67,1.67,0,0,1-1.89-1.89V1.89A1.67,1.67,0,0,1,195.6,0Zm1.761,10.371v19.2a1.008,1.008,0,0,1-1.008,1.008h-4.255a1.008,1.008,0,0,1-1.008-1.008v-19.2a1.008,1.008,0,0,1,1.008-1.008h4.255a1.008,1.008,0,0,1,1.008,1.008" data-name="Path 3040" id="Path_3040"></path>
        <path fill="#fff" transform="translate(-232.658 -22.542)" d="M284.542,32.913v2.151a1.008,1.008,0,0,1-1.008,1.008H269.572a1.008,1.008,0,0,1-1.008-1.008V33.077a1.008,1.008,0,0,1,.955-1.006l3.168-.165h10.847a1.008,1.008,0,0,1,1.008,1.008m-6.935-6.892a1.008,1.008,0,0,1,1.008,1.008V46.336a2.162,2.162,0,0,0,.537,1.654,2.6,2.6,0,0,0,1.782.494h1.889a1.008,1.008,0,0,1,1,.848l.409,2.559a1.006,1.006,0,0,1-.76,1.139q-.455.107-.987.2-1.117.193-2.233.279t-1.89.086a6.267,6.267,0,0,1-4.488-1.525,5.657,5.657,0,0,1-1.611-4.316V27.029a1.008,1.008,0,0,1,1.008-1.008Z" data-name="Path 3041" id="Path_3041"></path>
        <path fill="#fff" transform="translate(-346.4 -60.669)" d="M406.4,70.756l3.825,13.02q.171.816.344,1.632t.3,1.632h1.16l-2.019,4.209h-1.546a2.052,2.052,0,0,1-1.289-.43A2.2,2.2,0,0,1,406.4,89.7l-6.483-18.327a1.008,1.008,0,0,1,.95-1.344h4.564a1.008,1.008,0,0,1,.967.724m15.2-.724a1.008,1.008,0,0,1,.95,1.344l-7.126,20.131a16.993,16.993,0,0,1-1.439,3.2,12.178,12.178,0,0,1-2.319,2.9,9.041,9.041,0,0,1-3.35,1.933,10.157,10.157,0,0,1-3.783.416,1.009,1.009,0,0,1-.94-.876l-.255-1.945a1.009,1.009,0,0,1,.7-1.092,10.089,10.089,0,0,0,3.268-1.613,7.72,7.72,0,0,0,2.276-3.049l1.332-2.964a19.8,19.8,0,0,0,.752-2.3q.364-1.353.623-2.341l3.783-13.018a1.008,1.008,0,0,1,.968-.726Z" data-name="Path 3042" id="Path_3042"></path>
        <path fill="#fff" transform="translate(-572.742 -3.343)" d="M684.756,11.739a10.771,10.771,0,0,0-2.169-4.659,8.252,8.252,0,0,0-3.908-2.469,20.327,20.327,0,0,0-5.948-.751q-3.4,0-6.208.128-2.3.105-4.445.24a1.007,1.007,0,0,0-.945,1.006V32.978a1.007,1.007,0,0,0,.945,1.006q2.114.13,4.444.219,2.856.106,6.208.107a20.9,20.9,0,0,0,5.948-.73,8.036,8.036,0,0,0,3.908-2.469,10.944,10.944,0,0,0,2.169-4.682,32.816,32.816,0,0,0,.689-7.323,33.067,33.067,0,0,0-.689-7.367M667.662,28.58V9.537a.647.647,0,0,1,.654-.647l.718.007q1.683-.012,3.7-.013a5.946,5.946,0,0,1,3.5.9,5.054,5.054,0,0,1,1.782,3.114,28.856,28.856,0,0,1,.515,6.206,28.9,28.9,0,0,1-.515,6.185,4.971,4.971,0,0,1-1.782,3.114,6.059,6.059,0,0,1-3.5.88l-4.43-.057a.647.647,0,0,1-.639-.647" data-name="Path 3043" id="Path_3043"></path>
        <path fill="#fff" transform="translate(-754.749 -57.051)" d="M882.139,65.856a15.635,15.635,0,0,1,6.4,1.1A6.647,6.647,0,0,1,892,70.495a16.944,16.944,0,0,1,1.052,6.571A16.671,16.671,0,0,1,892,83.551a6.558,6.558,0,0,1-3.458,3.522,19.48,19.48,0,0,1-12.756,0,6.639,6.639,0,0,1-3.479-3.522,16.361,16.361,0,0,1-1.074-6.485,16.628,16.628,0,0,1,1.074-6.571,6.73,6.73,0,0,1,3.479-3.543,15.5,15.5,0,0,1,6.357-1.1m0,4.6a5.063,5.063,0,0,0-2.577.558,3.106,3.106,0,0,0-1.331,1.976,16.421,16.421,0,0,0-.387,4.08,15.965,15.965,0,0,0,.387,3.994,3.018,3.018,0,0,0,1.331,1.954,5.222,5.222,0,0,0,2.577.537,5.332,5.332,0,0,0,2.62-.537,2.952,2.952,0,0,0,1.31-1.954,16.9,16.9,0,0,0,.365-3.994,17.384,17.384,0,0,0-.365-4.08,3.038,3.038,0,0,0-1.31-1.976,5.169,5.169,0,0,0-2.62-.558" data-name="Path 3044" id="Path_3044"></path>
        <path fill="#fff" transform="translate(-918.667 -57.051)" d="M1071.184,65.856q1.159,0,2.534.107a23.562,23.562,0,0,1,2.77.386,12.934,12.934,0,0,1,1.764.48,1.006,1.006,0,0,1,.653,1.12l-.4,2.313a1.009,1.009,0,0,1-1.036.835q-1.241-.051-2.4-.067-1.568-.021-2.813-.021a7.406,7.406,0,0,0-3.049.515,3.1,3.1,0,0,0-1.611,1.8,10.6,10.6,0,0,0-.494,3.651,10.976,10.976,0,0,0,.494,3.694,3.1,3.1,0,0,0,1.611,1.847,7.409,7.409,0,0,0,3.049.515q.686,0,1.761-.043t2.319-.107q.749-.039,1.482-.116a1.011,1.011,0,0,1,1.112.853l.34,2.284A1.007,1.007,0,0,1,1078.63,87a16.069,16.069,0,0,1-3.151.805,27.983,27.983,0,0,1-4.338.344,15.071,15.071,0,0,1-6.271-1.1,6.578,6.578,0,0,1-3.393-3.543,17.12,17.12,0,0,1-1.031-6.528,16.8,16.8,0,0,1,1.052-6.528,6.578,6.578,0,0,1,3.414-3.522,15.345,15.345,0,0,1,6.271-1.074" data-name="Path 3045" id="Path_3045"></path>
        <path fill="#fff" transform="translate(-1054.478 -22.542)" d="M1233.193,32.913v2.151a1.008,1.008,0,0,1-1.008,1.008h-13.962a1.008,1.008,0,0,1-1.008-1.008V33.077a1.008,1.008,0,0,1,.955-1.006l3.168-.165h10.847a1.008,1.008,0,0,1,1.008,1.008m-6.935-6.892a1.007,1.007,0,0,1,1.008,1.008V46.336a2.162,2.162,0,0,0,.537,1.654,2.6,2.6,0,0,0,1.782.494h1.889a1.008,1.008,0,0,1,1,.848l.409,2.559a1.006,1.006,0,0,1-.76,1.14q-.455.107-.988.2-1.117.193-2.233.279t-1.89.086a6.268,6.268,0,0,1-4.488-1.525,5.657,5.657,0,0,1-1.611-4.316V27.029a1.008,1.008,0,0,1,1.008-1.008Z" data-name="Path 3046" id="Path_3046"></path>
        <path fill="#fff" transform="translate(-1174.703 -57.051)" d="M1366.905,65.856a15.636,15.636,0,0,1,6.4,1.1,6.648,6.648,0,0,1,3.458,3.543,16.943,16.943,0,0,1,1.052,6.571,16.67,16.67,0,0,1-1.052,6.485,6.559,6.559,0,0,1-3.458,3.522,19.48,19.48,0,0,1-12.756,0,6.639,6.639,0,0,1-3.479-3.522A16.363,16.363,0,0,1,1356,77.066a16.63,16.63,0,0,1,1.074-6.571,6.73,6.73,0,0,1,3.479-3.543,15.5,15.5,0,0,1,6.357-1.1m0,4.6a5.065,5.065,0,0,0-2.577.558A3.106,3.106,0,0,0,1363,72.986a16.421,16.421,0,0,0-.387,4.08A15.965,15.965,0,0,0,1363,81.06a3.018,3.018,0,0,0,1.331,1.954,5.224,5.224,0,0,0,2.577.537,5.33,5.33,0,0,0,2.62-.537,2.951,2.951,0,0,0,1.31-1.954,16.9,16.9,0,0,0,.365-3.994,17.385,17.385,0,0,0-.365-4.08,3.037,3.037,0,0,0-1.31-1.976,5.167,5.167,0,0,0-2.62-.558" data-name="Path 3047" id="Path_3047"></path>
        <path fill="#fff" transform="translate(-1344.466 -57.05)" d="M1557.049,67.239l.622,3.383.6.558V86.623a1.008,1.008,0,0,1-1.008,1.008h-4.3a1.008,1.008,0,0,1-1.007-1.008v-19.2a1.008,1.008,0,0,1,1.007-1.008h3.093a1.008,1.008,0,0,1,.991.826m10.085-.273-.394,3.826a1.008,1.008,0,0,1-1,.9h-.852a12.331,12.331,0,0,0-3.135.429q-1.633.43-4.123,1.332l-.43-3.565a18.2,18.2,0,0,1,4.51-3.007,10.689,10.689,0,0,1,4.424-1.031,1.008,1.008,0,0,1,1,1.111" data-name="Path 3048" id="Path_3048"></path>
      </g>
    </g>
  </g>
</svg>
